<svg xmlns="http://www.w3.org/2000/svg" xmlns:xlink="http://www.w3.org/1999/xlink" width="1000" zoomAndPan="magnify" viewBox="0 0 750 749.999995" height="1000" preserveAspectRatio="xMidYMid meet" version="1.0"><path fill="#000000" d="M 589.53125 4.9375 C 586.5625 1.78125 582.4375 0 578.125 0 L 171.875 0 C 167.5625 0 163.40625 1.78125 160.46875 4.9375 C 157.53125 8.09375 156 12.34375 156.28125 16.65625 L 176.09375 313.90625 C 183.03125 418.25 270.40625 500 375 500 C 479.59375 500 566.96875 418.25 573.90625 313.90625 L 593.71875 16.65625 C 594 12.34375 592.46875 8.09375 589.53125 4.9375 Z M 589.53125 4.9375 " fill-opacity="1" fill-rule="nonzero"/><path fill="#000000" d="M 177.375 343.75 L 156.25 343.75 C 87.3125 343.75 31.25 287.6875 31.25 218.75 L 31.25 93.75 C 31.25 76.5 45.25 62.5 62.5 62.5 L 171.875 62.5 C 189.125 62.5 203.125 76.5 203.125 93.75 C 203.125 111 189.125 125 171.875 125 L 93.75 125 L 93.75 218.75 C 93.75 253.21875 121.78125 281.25 156.25 281.25 L 177.375 281.25 C 194.625 281.25 208.625 295.25 208.625 312.5 C 208.625 329.75 194.625 343.75 177.375 343.75 Z M 177.375 343.75 " fill-opacity="1" fill-rule="nonzero"/><path fill="#000000" d="M 593.75 343.75 L 572.625 343.75 C 555.375 343.75 541.375 329.75 541.375 312.5 C 541.375 295.25 555.375 281.25 572.625 281.25 L 593.75 281.25 C 628.21875 281.25 656.25 253.21875 656.25 218.75 L 656.25 125 L 578.125 125 C 560.875 125 546.875 111 546.875 93.75 C 546.875 76.5 560.875 62.5 578.125 62.5 L 687.5 62.5 C 704.75 62.5 718.75 76.5 718.75 93.75 L 718.75 218.75 C 718.75 287.6875 662.6875 343.75 593.75 343.75 Z M 593.75 343.75 " fill-opacity="1" fill-rule="nonzero"/><path fill="#000000" d="M 375 601.5625 C 357.75 601.5625 343.75 587.5625 343.75 570.3125 L 343.75 484.375 C 343.75 467.125 357.75 453.125 375 453.125 C 392.25 453.125 406.25 467.125 406.25 484.375 L 406.25 570.3125 C 406.25 587.5625 392.25 601.5625 375 601.5625 Z M 375 601.5625 " fill-opacity="1" fill-rule="nonzero"/><path fill="#000000" d="M 171.875 656.25 L 578.125 656.25 C 579.152344 656.25 580.167969 656.351562 581.171875 656.550781 C 582.179688 656.75 583.15625 657.046875 584.105469 657.4375 C 585.050781 657.832031 585.953125 658.3125 586.804688 658.882812 C 587.660156 659.453125 588.449219 660.101562 589.171875 660.828125 C 589.898438 661.550781 590.546875 662.339844 591.117188 663.195312 C 591.6875 664.046875 592.167969 664.949219 592.5625 665.894531 C 592.953125 666.84375 593.25 667.820312 593.449219 668.828125 C 593.648438 669.832031 593.75 670.847656 593.75 671.875 L 593.75 734.375 C 593.75 735.402344 593.648438 736.417969 593.449219 737.421875 C 593.25 738.429688 592.953125 739.40625 592.5625 740.355469 C 592.167969 741.300781 591.6875 742.203125 591.117188 743.054688 C 590.546875 743.910156 589.898438 744.699219 589.171875 745.421875 C 588.449219 746.148438 587.660156 746.796875 586.804688 747.367188 C 585.953125 747.9375 585.050781 748.417969 584.105469 748.8125 C 583.15625 749.203125 582.179688 749.5 581.171875 749.699219 C 580.167969 749.898438 579.152344 750 578.125 750 L 171.875 750 C 170.847656 750 169.832031 749.898438 168.828125 749.699219 C 167.820312 749.5 166.84375 749.203125 165.894531 748.8125 C 164.949219 748.417969 164.046875 747.9375 163.195312 747.367188 C 162.339844 746.796875 161.550781 746.148438 160.828125 745.421875 C 160.101562 744.699219 159.453125 743.910156 158.882812 743.054688 C 158.3125 742.203125 157.832031 741.300781 157.4375 740.355469 C 157.046875 739.40625 156.75 738.429688 156.550781 737.421875 C 156.351562 736.417969 156.25 735.402344 156.25 734.375 L 156.25 671.875 C 156.25 670.847656 156.351562 669.832031 156.550781 668.828125 C 156.75 667.820312 157.046875 666.84375 157.4375 665.894531 C 157.832031 664.949219 158.3125 664.046875 158.882812 663.195312 C 159.453125 662.339844 160.101562 661.550781 160.828125 660.828125 C 161.550781 660.101562 162.339844 659.453125 163.195312 658.882812 C 164.046875 658.3125 164.949219 657.832031 165.894531 657.4375 C 166.84375 657.046875 167.820312 656.75 168.828125 656.550781 C 169.832031 656.351562 170.847656 656.25 171.875 656.25 Z M 171.875 656.25 " fill-opacity="1" fill-rule="nonzero"/><path fill="#000000" d="M 421.875 562.5 L 328.125 562.5 C 267.8125 562.5 218.75 611.5625 218.75 671.875 C 218.75 680.5 225.75 687.5 234.375 687.5 L 515.625 687.5 C 524.25 687.5 531.25 680.5 531.25 671.875 C 531.25 611.5625 482.1875 562.5 421.875 562.5 Z M 421.875 562.5 " fill-opacity="1" fill-rule="nonzero"/></svg>