<svg xmlns="http://www.w3.org/2000/svg" xmlns:xlink="http://www.w3.org/1999/xlink" width="1000" zoomAndPan="magnify" viewBox="0 0 750 749.999995" height="1000" preserveAspectRatio="xMidYMid meet" version="1.0"><path fill="#000000" d="M 374.910156 -0.0585938 C 168.152344 -0.0585938 -0.0585938 168.152344 -0.0585938 374.910156 C -0.0585938 581.667969 168.152344 749.878906 374.910156 749.878906 C 581.667969 749.878906 749.878906 581.667969 749.878906 374.910156 C 749.878906 168.152344 581.667969 -0.0585938 374.910156 -0.0585938 Z M 524.898438 421.78125 L 421.78125 421.78125 L 421.78125 524.898438 C 421.78125 550.769531 400.78125 571.769531 374.910156 571.769531 C 349.035156 571.769531 328.039062 550.769531 328.039062 524.898438 L 328.039062 421.78125 L 224.921875 421.78125 C 199.050781 421.78125 178.050781 400.78125 178.050781 374.910156 C 178.050781 349.035156 199.050781 328.039062 224.921875 328.039062 L 328.039062 328.039062 L 328.039062 224.921875 C 328.039062 199.050781 349.035156 178.050781 374.910156 178.050781 C 400.78125 178.050781 421.78125 199.050781 421.78125 224.921875 L 421.78125 328.039062 L 524.898438 328.039062 C 550.769531 328.039062 571.769531 349.035156 571.769531 374.910156 C 571.769531 400.78125 550.769531 421.78125 524.898438 421.78125 Z M 524.898438 421.78125 " fill-opacity="1" fill-rule="nonzero"/></svg>