<svg xmlns="http://www.w3.org/2000/svg" xmlns:xlink="http://www.w3.org/1999/xlink" width="1000" zoomAndPan="magnify" viewBox="0 0 750 749.999995" height="1000" preserveAspectRatio="xMidYMid meet" version="1.0"><path fill="#000000" d="M 721.875 293.203125 L 690.703125 293.203125 C 687.1875 293.203125 683.90625 290.625 682.734375 286.875 C 675.9375 263.203125 666.5625 240.46875 654.84375 219.375 C 652.96875 216.09375 653.671875 211.875 656.015625 209.53125 L 678.28125 187.265625 C 689.0625 176.25 689.0625 158.671875 678.28125 147.890625 L 602.109375 71.71875 C 594.84375 64.6875 587.34375 63.046875 582.1875 63.046875 C 577.03125 63.046875 569.53125 64.6875 562.265625 71.71875 L 540.234375 93.984375 C 537.890625 96.328125 533.671875 96.796875 530.390625 94.921875 C 509.53125 83.203125 486.796875 73.828125 462.65625 66.796875 C 459.140625 65.859375 456.796875 62.8125 456.796875 59.0625 L 456.796875 27.890625 C 456.796875 12.421875 444.140625 0 428.671875 0 L 320.859375 0 C 305.625 0 293.203125 12.421875 293.203125 27.890625 L 293.203125 59.0625 C 293.203125 62.578125 290.390625 65.859375 286.875 66.796875 C 263.203125 73.59375 240.46875 82.96875 219.140625 94.921875 C 215.859375 96.796875 211.640625 96.328125 209.296875 93.984375 L 188.671875 73.359375 C 178.359375 61.171875 155.15625 62.8125 147.890625 71.71875 L 73.125 146.71875 C 66.796875 151.875 63.28125 159.375 63.28125 167.578125 C 63.28125 175.546875 66.796875 183.28125 71.71875 187.265625 L 93.515625 209.296875 C 96.09375 211.875 96.5625 216.09375 94.6875 219.375 C 82.96875 240.46875 73.59375 263.203125 66.5625 287.109375 C 65.625 290.625 62.578125 293.203125 59.0625 293.203125 L 27.65625 293.203125 C 12.421875 293.203125 0 305.859375 0 321.09375 L 0 428.90625 C 0 444.375 12.421875 456.796875 27.65625 456.796875 L 59.0625 456.796875 C 62.34375 456.796875 65.625 459.375 66.796875 462.890625 C 73.59375 486.796875 82.96875 509.765625 94.6875 530.625 C 96.5625 534.140625 96.328125 537.890625 93.75 540.46875 L 71.484375 562.734375 C 60.46875 573.75 60.46875 591.09375 71.71875 602.109375 L 146.71875 677.109375 C 151.875 683.203125 159.609375 686.71875 167.578125 686.71875 C 175.546875 686.71875 183.046875 683.203125 187.265625 678.28125 L 209.296875 656.25 C 211.875 653.671875 216.09375 653.203125 219.140625 655.078125 C 241.40625 667.265625 264.375 676.875 286.640625 682.96875 C 290.390625 684.140625 293.203125 687.421875 293.203125 690.9375 L 293.203125 722.34375 C 293.203125 737.578125 305.625 750 320.859375 750 L 428.671875 750 C 444.140625 750 456.796875 737.578125 456.796875 722.34375 L 456.796875 690.9375 C 456.796875 687.421875 459.375 684.140625 462.65625 682.96875 C 485.625 676.640625 508.359375 667.265625 530.15625 655.078125 C 533.4375 653.203125 537.65625 653.671875 540.234375 656.25 L 563.671875 679.6875 C 574.453125 688.828125 589.921875 688.828125 601.875 678.28125 L 679.453125 600.703125 C 688.59375 590.15625 688.59375 574.6875 678.28125 562.5 L 656.015625 540.46875 C 653.4375 537.890625 652.96875 533.90625 654.84375 530.625 C 666.5625 509.53125 675.9375 486.796875 682.734375 463.125 C 683.90625 459.609375 687.1875 456.796875 690.703125 456.796875 L 721.875 456.796875 C 737.34375 456.796875 750 444.375 750 428.90625 L 750 321.09375 C 750 305.859375 737.34375 293.203125 721.875 293.203125 Z M 476.25 515.390625 C 447.1875 536.25 413.4375 547.5 378.28125 548.203125 L 374.765625 548.203125 C 304.21875 548.203125 239.296875 504.140625 213.515625 438.515625 C 187.03125 370.78125 206.015625 292.734375 260.859375 244.453125 C 315 196.640625 396.796875 188.4375 459.84375 224.0625 C 532.03125 264.609375 565.78125 354.375 538.359375 432.890625 C 526.640625 465.9375 505.3125 494.296875 476.25 515.390625 Z M 476.25 515.390625 " fill-opacity="1" fill-rule="nonzero"/></svg>